<?xml version="1.0" encoding="utf-8"?>
<!-- Generator: Adobe Illustrator 16.0.0, SVG Export Plug-In . SVG Version: 6.00 Build 0)  -->
<!DOCTYPE svg PUBLIC "-//W3C//DTD SVG 1.1//EN" "http://www.w3.org/Graphics/SVG/1.1/DTD/svg11.dtd">
<svg version="1.1" id="Ebene_1" xmlns="http://www.w3.org/2000/svg" xmlns:xlink="http://www.w3.org/1999/xlink" x="0px" y="0px"
	 width="550px" height="550px" viewBox="0 0 550 550" enable-background="new 0 0 550 550" xml:space="preserve">
<g>
	<g>
		<path fill="#4484CE" d="M75.008,446.327c-0.099-1.438,0.652-2.163,1.992-2.163h4.95c1.24,0,1.948,0.707,2.099,2.043
			c0.919,6.945,6.772,10.604,15.082,10.604c7.875,0,13.431-3.975,13.431-10.164c0-6.555-6.625-9.406-14.186-12.188
			c-10.162-3.753-21.763-7.383-21.763-21.055c0-11.896,10.236-18.498,21.105-18.498c10.971,0,20.79,6.218,21.814,18.157
			c0.096,1.435-0.657,2.166-1.998,2.166h-4.949c-1.245,0-1.948-0.707-2.095-1.975c-0.853-6.311-5.952-9.58-12.773-9.58
			c-6.851,0-12.092,3.614-12.092,9.729c0,6.868,6.122,9.627,13.679,12.479c10.187,3.847,22.274,7.578,22.274,20.764
			c0,11.968-10.556,18.936-22.448,18.936C86.727,465.582,76.027,459.008,75.008,446.327z"/>
		<path d="M171.807,457.857v4.436c0,1.339-0.731,2.07-2.072,2.07h-34h-1.342c-1.337,0-2.07-0.731-2.07-2.07v-64.099
			c0-1.342,0.733-2.07,2.07-2.07h6.953h27.903c1.337,0,2.072,0.729,2.072,2.07v4.436c0,1.343-0.735,2.074-2.072,2.074h-27.903
			v20.987h25.465c1.34,0,2.07,0.725,2.07,2.066v4.34c0,1.335-0.73,2.073-2.07,2.073h-25.465v21.613h28.39
			C171.076,455.784,171.807,456.515,171.807,457.857z"/>
		<path d="M223.155,396.124h4.877c1.339,0,2.07,0.729,2.07,2.07v64.099c0,1.339-0.731,2.07-2.07,2.07h-3.586
			c-1.119,0-1.975-0.415-2.515-1.339l-30.092-49.108v48.377c0,1.339-0.735,2.07-2.074,2.07h-4.874c-1.34,0-2.07-0.731-2.07-2.07
			v-64.099c0-1.342,0.73-2.07,2.07-2.07h3.582c1.122,0,1.974,0.412,2.514,1.34l30.098,49.108v-48.378
			C221.085,396.853,221.821,396.124,223.155,396.124z"/>
		<path d="M284.201,457.857v4.436c0,1.339-0.729,2.07-2.07,2.07h-33.997h-1.341c-1.343,0-2.074-0.731-2.074-2.07v-64.099
			c0-1.342,0.731-2.07,2.074-2.07h6.946h27.905c1.343,0,2.066,0.729,2.066,2.07v4.436c0,1.343-0.724,2.074-2.066,2.074H253.74
			v20.987h25.465c1.342,0,2.07,0.725,2.07,2.066v4.34c0,1.335-0.729,2.073-2.07,2.073H253.74v21.613h28.391
			C283.473,455.784,284.201,456.515,284.201,457.857z"/>
		<path d="M347.174,464.363h-6.041c-1.047,0-1.879-0.313-2.585-1.169l-21.392-24.91h-12.919v24.009c0,1.339-0.739,2.07-2.07,2.07
			h-4.88c-1.335,0-2.073-0.731-2.073-2.07v-64.099c0-1.342,0.738-2.07,2.073-2.07h6.95h15.837c11.723,0,21.201,9.482,21.201,21.204
			c0,9.017-5.928,16.879-14.193,19.77l21.264,24.688C349.468,463.116,348.928,464.363,347.174,464.363z M304.237,430.049h15.837
			c6.702,0,12.188-5.703,12.188-12.721c0-7.095-5.485-12.724-12.188-12.724h-15.837V430.049z"/>
		<path d="M417.639,431.288v6.168v24.837c0,1.339-0.738,2.07-2.077,2.07h-4.638c-1.335,0-2.07-0.731-2.07-2.07v-7.852
			c-5.114,7.539-14.099,11.141-24.049,11.141c-20.103,0-34.854-15.693-34.854-35.338c0-19.642,14.841-35.338,35.342-35.338
			c14.478,0,26.979,8.601,31.563,20.788c0.511,1.438-0.225,2.362-1.68,2.362h-5.437c-1.144,0-1.93-0.512-2.461-1.534
			c-3.704-7.604-12.213-12.848-21.985-12.848c-15.597,0-26.325,11.604-26.325,26.569c0,15.213,10.87,26.811,26.325,26.811
			c12.337,0,23.217-6.559,23.49-19.599h-20.028c-1.346,0-2.074-0.728-2.074-2.07v-4.098c0-1.336,0.729-2.07,2.074-2.07h26.808
			C416.9,429.218,417.639,429.952,417.639,431.288z"/>
		<path d="M474.589,398.61l-21.67,34.51v29.173c0,1.339-0.73,2.07-2.07,2.07h-4.875c-1.339,0-2.07-0.731-2.07-2.07v-29.286
			L422.31,398.61c-0.902-1.393-0.267-2.486,1.363-2.486h5.606c1.073,0,1.875,0.434,2.465,1.393l16.708,26.964l16.705-26.964
			c0.59-0.959,1.388-1.393,2.465-1.393h5.6C474.858,396.124,475.487,397.218,474.589,398.61z"/>
	</g>
	<g>
		
			<line fill="none" stroke="#F19F4D" stroke-width="11.9759" stroke-linecap="round" stroke-miterlimit="10" x1="251.896" y1="354.971" x2="275.846" y2="354.971"/>
		<path fill="none" stroke="#F19F4D" stroke-width="7.9839" stroke-miterlimit="10" d="M290.898,354.988
			c0,3.412-2.77,6.179-6.179,6.179c-3.412,0-6.179-2.767-6.179-6.179c0-3.409,2.767-6.176,6.179-6.176
			C288.129,348.813,290.898,351.579,290.898,354.988z"/>
		<path fill="none" stroke="#F19F4D" stroke-width="7.9839" stroke-miterlimit="10" d="M249.645,354.988
			c0,3.412-2.769,6.179-6.177,6.179c-3.415,0-6.177-2.767-6.177-6.179c0-3.409,2.763-6.176,6.177-6.176
			C246.876,348.813,249.645,351.579,249.645,354.988z"/>
	</g>
	<g>
		
			<line fill="none" stroke="#4484CE" stroke-width="11.9759" stroke-miterlimit="10" x1="241.251" y1="332.354" x2="287.827" y2="332.354"/>
		<path fill="none" stroke="#4484CE" stroke-width="7.9839" stroke-miterlimit="10" d="M297.554,332.367
			c0,3.412-2.77,6.179-6.18,6.179c-3.419,0-6.179-2.767-6.179-6.179c0-3.405,2.76-6.176,6.179-6.176
			C294.784,326.191,297.554,328.962,297.554,332.367z"/>
		<path fill="none" stroke="#4484CE" stroke-width="7.9839" stroke-miterlimit="10" d="M242.992,332.367
			c0,3.412-2.768,6.179-6.179,6.179c-3.413,0-6.177-2.767-6.177-6.179c0-3.405,2.764-6.176,6.177-6.176
			C240.224,326.191,242.992,328.962,242.992,332.367z"/>
	</g>
	<path fill="none" stroke="#000000" stroke-width="7.9839" stroke-miterlimit="10" d="M355,172.976c0,3.415-2.897,6.183-6.477,6.183
		c-3.576,0-6.474-2.768-6.474-6.183c0-3.404,2.897-6.173,6.474-6.173C352.103,166.802,355,169.572,355,172.976z"/>
	
		<path fill="none" stroke="#000000" stroke-width="10.6452" stroke-linecap="round" stroke-linejoin="round" stroke-miterlimit="10" d="
		M179.595,165.378c0,0,3.996-79.798,85.874-78.953c85.874,0.888,82.813,78.308,82.813,78.308"/>
	<path fill="none" stroke="#000000" stroke-width="7.9839" stroke-miterlimit="10" d="M186.138,172.976
		c0,3.415-2.902,6.183-6.48,6.183s-6.476-2.768-6.476-6.183c0-3.404,2.897-6.173,6.476-6.173S186.138,169.572,186.138,172.976z"/>
	<g>
		<g>
			<path fill="none" stroke="#000000" stroke-width="7.9839" stroke-miterlimit="10" d="M180.247,193.415
				c3.565,0,6.459,2.77,6.459,6.175c0,3.415-2.893,6.181-6.459,6.181c-3.569,0-6.463-2.769-6.463-6.181
				C173.784,196.185,176.678,193.415,180.247,193.415z"/>
			<path fill="none" stroke="#000000" stroke-width="10.6452" stroke-linecap="round" stroke-miterlimit="10" d="M233.533,298.22
				c0,0,0.234,0.696-1.332-9.688c-1.568-10.391-6.032-20.272-18.008-31.583c-27.276-19.963-33.718-49.436-33.718-49.436"/>
			<path fill="none" stroke="#000000" stroke-width="7.9839" stroke-miterlimit="10" d="M233.507,300.457
				c3.569,0,6.458,2.77,6.458,6.172c0,3.415-2.889,6.182-6.458,6.182c-3.567,0-6.463-2.77-6.463-6.182
				C227.044,303.227,229.938,300.457,233.507,300.457z"/>
		</g>
		<g>
			<path fill="none" stroke="#000000" stroke-width="7.9839" stroke-miterlimit="10" d="M354.403,199.59
				c0,3.413-2.897,6.181-6.459,6.181c-3.569,0-6.464-2.767-6.464-6.181c0-3.405,2.895-6.175,6.464-6.175
				C351.506,193.415,354.403,196.185,354.403,199.59z"/>
			<path fill="none" stroke="#000000" stroke-width="10.6452" stroke-linecap="round" stroke-miterlimit="10" d="M347.714,207.514
				c0,0-6.442,29.473-33.718,49.436c-11.979,11.31-16.442,21.192-18.013,31.583c-1.565,10.384-1.323,9.688-1.323,9.688"/>
			<path fill="none" stroke="#000000" stroke-width="7.9839" stroke-miterlimit="10" d="M301.145,306.629
				c0,3.412-2.896,6.182-6.464,6.182s-6.459-2.767-6.459-6.182c0-3.402,2.891-6.172,6.459-6.172S301.145,303.227,301.145,306.629z"
				/>
		</g>
	</g>
	<g>
		<g>
			
				<polyline fill="none" stroke="#000000" stroke-width="7.9839" stroke-linecap="round" stroke-linejoin="round" stroke-miterlimit="10" points="
				277.177,290.438 277.177,257.397 303.218,227.475 302.728,162.376 			"/>
			<path fill="none" stroke="#4484CE" stroke-width="7.9839" stroke-miterlimit="10" d="M308.863,154.346
				c0,3.415-2.77,6.183-6.179,6.183c-3.42,0-6.179-2.766-6.179-6.183c0-3.404,2.759-6.173,6.179-6.173
				C306.094,148.173,308.863,150.942,308.863,154.346z"/>
		</g>
		<g>
			
				<polyline fill="none" stroke="#000000" stroke-width="7.9839" stroke-linecap="round" stroke-linejoin="round" stroke-miterlimit="10" points="
				262.541,281.121 262.541,231.816 251.896,218.056 251.896,189.306 			"/>
			<path fill="none" stroke="#F19F4D" stroke-width="7.9839" stroke-miterlimit="10" d="M258.294,182.291
				c0,3.413-2.767,6.183-6.179,6.183c-3.411,0-6.176-2.767-6.176-6.183c0-3.406,2.762-6.176,6.176-6.176
				C255.527,176.115,258.294,178.885,258.294,182.291z"/>
		</g>
		<g>
			
				<polyline fill="none" stroke="#000000" stroke-width="7.9839" stroke-linecap="round" stroke-linejoin="round" stroke-miterlimit="10" points="
				247.905,286.443 247.905,234.812 223.88,220.329 223.439,171.354 			"/>
			<path fill="none" stroke="#F9CF00" stroke-width="7.9839" stroke-miterlimit="10" d="M230.35,163.659
				c0,3.417-2.764,6.185-6.179,6.185c-3.411,0-6.174-2.767-6.174-6.185c0-3.402,2.761-6.172,6.174-6.172
				C227.585,157.487,230.35,160.257,230.35,163.659z"/>
		</g>
	</g>
</g>
</svg>
